<svg width="478.803" height="94.509" viewBox="0 0 478.803 94.509" xmlns="http://www.w3.org/2000/svg"><g id="svgGroup" stroke-linecap="round" fill-rule="evenodd" font-size="9pt" stroke="#ffffff" stroke-width="0.25mm" fill="#ffffff" style="stroke:#ffffff;stroke-width:0.25mm;fill:#ffffff"><path d="M 15.37 92.822 A 24.013 24.013 0 0 0 24.402 94.502 A 21.358 21.358 0 0 0 41.486 86.495 A 35.017 35.017 0 0 0 46.202 79.002 Q 46.666 82.124 47.7 84.649 A 16.346 16.346 0 0 0 51.602 90.452 A 14.324 14.324 0 0 0 57.892 93.896 A 19.66 19.66 0 0 0 62.902 94.502 A 25.293 25.293 0 0 0 67.707 94.066 A 18.346 18.346 0 0 0 74.402 91.402 A 31.425 31.425 0 0 0 76.431 89.941 Q 78.376 88.422 80.355 86.433 A 60.71 60.71 0 0 0 82 84.705 A 27.273 27.273 0 0 0 83.102 86.802 Q 87.702 94.502 97.802 94.502 Q 104.502 94.502 110.052 89.402 A 23.895 23.895 0 0 0 114.832 83.292 A 29.202 29.202 0 0 0 117.602 76.002 A 52.306 52.306 0 0 0 122.012 75.635 A 42.89 42.89 0 0 0 123.661 75.401 A 24.553 24.553 0 0 0 125.802 83.902 Q 128.002 88.702 132.252 91.602 A 16.069 16.069 0 0 0 137.424 93.906 A 20.705 20.705 0 0 0 142.502 94.502 A 18.053 18.053 0 0 0 149.053 93.307 A 19.822 19.822 0 0 0 155.202 89.452 A 22.918 22.918 0 0 0 160.108 83.141 A 28.513 28.513 0 0 0 162.702 76.002 A 52.306 52.306 0 0 0 167.112 75.635 A 42.89 42.89 0 0 0 170.315 75.119 A 98.01 98.01 0 0 0 170.202 80.002 A 22.346 22.346 0 0 0 170.655 84.617 A 15.755 15.755 0 0 0 173.052 90.352 A 12.208 12.208 0 0 0 173.989 91.554 A 8.258 8.258 0 0 0 180.402 94.502 A 8.146 8.146 0 0 0 181.898 94.364 Q 183.715 94.026 185.417 92.854 A 13.966 13.966 0 0 0 187.702 90.852 A 16.276 16.276 0 0 0 189.394 88.682 Q 190.543 86.932 191.433 84.705 A 33.504 33.504 0 0 0 192.802 80.402 A 33.051 33.051 0 0 0 192.974 83.878 Q 193.182 85.838 193.641 87.463 A 13.395 13.395 0 0 0 195.052 90.802 A 7.25 7.25 0 0 0 199.227 94.104 A 9.788 9.788 0 0 0 202.102 94.502 Q 208.402 94.502 213.352 91.102 Q 218.302 87.702 222.602 82.402 A 6.749 6.749 0 0 0 222.821 82.134 A 35.487 35.487 0 0 0 223.204 83.133 Q 225.836 89.421 230.941 92.232 A 20.157 20.157 0 0 0 240.802 94.502 A 24.839 24.839 0 0 0 242.027 94.472 A 20.322 20.322 0 0 0 252.502 91.102 A 38.566 38.566 0 0 0 255.952 88.508 A 45.062 45.062 0 0 0 261.902 82.402 A 6.749 6.749 0 0 0 262.805 81.053 Q 263.802 79.1 263.802 76.202 Q 263.802 74.971 263.545 74.05 A 4.376 4.376 0 0 0 263.052 72.902 A 3.165 3.165 0 0 0 262.752 72.494 A 2.225 2.225 0 0 0 261.002 71.702 A 3.137 3.137 0 0 0 259.142 72.319 A 4.764 4.764 0 0 0 258.302 73.102 A 115.889 115.889 0 0 1 257.894 73.571 Q 255.041 76.833 252.682 79.023 A 35.701 35.701 0 0 1 250.502 80.902 Q 247.202 83.502 242.902 83.502 A 11.441 11.441 0 0 1 240.867 83.329 A 7.985 7.985 0 0 1 235.152 79.302 Q 232.702 75.102 232.702 64.702 A 101.939 101.939 0 0 1 232.713 63.269 Q 232.749 60.73 232.902 56.902 L 245.102 56.902 Q 256.402 56.902 256.402 50.002 Q 256.402 48.748 256.097 48.016 A 1.879 1.879 0 0 0 255.702 47.402 Q 255.197 46.896 254.221 46.756 A 5.768 5.768 0 0 0 253.402 46.702 L 242.202 46.702 A 47.53 47.53 0 0 0 245.775 43.2 A 33.828 33.828 0 0 0 255.202 19.702 A 25.393 25.393 0 0 0 255.195 19.074 Q 255.141 16.896 254.71 15.017 A 14.264 14.264 0 0 0 252.802 10.402 A 10.433 10.433 0 0 0 252.407 9.834 Q 250.067 6.702 246.202 6.702 A 11.751 11.751 0 0 0 243.929 6.922 Q 241.323 7.435 238.882 9.14 A 20.38 20.38 0 0 0 235.552 12.102 Q 232.594 15.329 230.154 19.878 A 59.1 59.1 0 0 0 227.102 26.602 Q 223.602 35.702 221.902 46.702 L 216.202 46.702 A 6.292 6.292 0 0 0 215.39 46.752 Q 212.53 47.124 211.888 50.258 A 10.231 10.231 0 0 0 211.702 52.302 A 8.767 8.767 0 0 0 211.781 53.515 Q 211.989 55.002 212.752 55.802 Q 213.802 56.902 216.802 56.902 L 220.702 56.902 Q 220.402 61.402 220.402 65.802 A 63.566 63.566 0 0 0 220.663 71.882 A 3.137 3.137 0 0 0 219.842 72.319 A 4.764 4.764 0 0 0 219.002 73.102 Q 214.402 78.602 211.652 81.052 A 18.563 18.563 0 0 1 211.088 81.536 Q 209.612 82.747 208.366 83.212 A 4.196 4.196 0 0 1 206.902 83.502 A 3.186 3.186 0 0 1 206.857 83.502 Q 205.589 83.484 204.802 82.452 A 3.349 3.349 0 0 1 204.37 81.687 Q 204.002 80.79 204.002 79.502 Q 204.002 77.064 205.851 68.157 A 426.31 426.31 0 0 1 206.802 63.702 A 447.762 447.762 0 0 0 207.113 62.298 Q 209.302 52.341 209.302 50.002 A 4.334 4.334 0 0 0 209.282 49.572 Q 209.243 49.183 209.13 48.871 A 1.727 1.727 0 0 0 208.402 47.952 A 2.52 2.52 0 0 0 207.911 47.727 Q 206.97 47.402 205.202 47.402 Q 203.23 47.402 201.847 47.866 A 5.254 5.254 0 0 0 200.252 48.702 A 5.37 5.37 0 0 0 199.248 49.756 Q 198.763 50.418 198.385 51.293 A 12.336 12.336 0 0 0 197.802 53.002 A 175.362 175.362 0 0 1 196.669 57.02 Q 194.805 63.332 192.852 68.002 A 89.066 89.066 0 0 1 192.362 69.152 Q 190.873 72.579 189.488 74.924 A 23.883 23.883 0 0 1 188.052 77.102 A 22.589 22.589 0 0 1 187.908 77.292 Q 185.754 80.102 184.302 80.102 A 2.428 2.428 0 0 1 183.88 80.067 A 1.635 1.635 0 0 1 182.702 79.252 A 2.43 2.43 0 0 1 182.504 78.811 Q 182.299 78.216 182.234 77.274 A 13.992 13.992 0 0 1 182.202 76.302 Q 182.202 72.802 184.202 62.302 A 74.279 74.279 0 0 1 184.241 62.108 Q 184.538 60.647 184.927 59.022 A 124.01 124.01 0 0 1 185.802 55.602 A 198.933 198.933 0 0 0 186.1 54.341 Q 186.726 51.644 186.864 50.635 A 3.471 3.471 0 0 0 186.902 50.202 A 4.518 4.518 0 0 0 186.902 50.125 Q 186.879 48.783 186.052 48.102 A 2.096 2.096 0 0 0 185.641 47.841 Q 184.746 47.402 183.002 47.402 Q 180.443 47.402 178.788 47.962 A 5.57 5.57 0 0 0 177.302 48.702 A 5.856 5.856 0 0 0 176.313 49.613 Q 175.208 50.884 174.502 53.002 A 98.87 98.87 0 0 0 172.848 58.566 A 78.663 78.663 0 0 0 171.551 64.268 A 65.425 65.425 0 0 1 167.28 65.08 A 43.088 43.088 0 0 1 163.502 65.502 A 27.657 27.657 0 0 0 163.156 63.141 A 21.86 21.86 0 0 0 158.052 52.552 A 14.981 14.981 0 0 0 151.64 48.219 A 17.814 17.814 0 0 0 145.802 47.302 Q 139.602 47.302 134.502 50.652 A 21.614 21.614 0 0 0 130.854 53.666 A 24.072 24.072 0 0 0 126.502 59.952 A 27.572 27.572 0 0 0 124.738 64.629 A 65.425 65.425 0 0 1 122.18 65.08 A 43.088 43.088 0 0 1 118.402 65.502 A 27.893 27.893 0 0 0 117.834 62.135 A 21.725 21.725 0 0 0 113.402 53.052 A 15.375 15.375 0 0 0 108.999 49.363 A 15.698 15.698 0 0 0 102.502 47.502 Q 106.44 42.635 109.151 38.007 A 50.87 50.87 0 0 0 112.802 30.502 A 51.046 51.046 0 0 0 112.993 29.996 A 45.155 45.155 0 0 0 115.902 14.202 Q 115.902 7.902 113.102 3.952 A 11.377 11.377 0 0 0 112.255 2.893 A 8.472 8.472 0 0 0 105.702 0.002 Q 99.427 0.002 94.432 5.807 A 31.773 31.773 0 0 0 91.052 10.652 Q 84.902 21.302 81.702 36.452 A 158.597 158.597 0 0 0 79.459 49.72 A 120.401 120.401 0 0 0 78.502 64.502 A 91.37 91.37 0 0 0 78.504 65.084 Q 78.532 69.426 78.974 73.147 A 45.28 45.28 0 0 0 79.154 74.55 A 99.526 99.526 0 0 1 78.993 74.733 Q 75.524 78.656 73.102 80.452 A 12.538 12.538 0 0 1 71.866 81.263 A 9.657 9.657 0 0 1 67.002 82.602 A 7.816 7.816 0 0 1 65.915 82.529 A 5.202 5.202 0 0 1 62.102 80.152 Q 60.94 78.372 60.622 75.034 A 28.932 28.932 0 0 1 60.502 72.302 A 44.185 44.185 0 0 1 60.574 69.879 Q 60.896 64.05 62.652 54.452 Q 64.802 42.702 67.402 33.002 A 13.117 13.117 0 0 0 67.564 32.274 Q 67.629 31.931 67.664 31.629 A 5.549 5.549 0 0 0 67.702 31.002 A 4.168 4.168 0 0 0 67.077 28.677 Q 65.99 27.008 63.015 26.564 A 16.406 16.406 0 0 0 60.602 26.402 A 15.558 15.558 0 0 0 59.225 26.46 Q 57.168 26.643 55.802 27.402 A 3.982 3.982 0 0 0 54.715 28.292 Q 54.211 28.877 53.864 29.698 A 8.386 8.386 0 0 0 53.402 31.202 Q 50.859 44.402 48.268 53.821 A 139.541 139.541 0 0 1 45.902 61.602 Q 43.349 69.127 40.435 73.853 A 25.89 25.89 0 0 1 37.502 77.802 A 18.983 18.983 0 0 1 36.179 79.109 A 13.695 13.695 0 0 1 26.802 82.802 A 10.066 10.066 0 0 1 20.918 81.031 A 11.965 11.965 0 0 1 18.052 78.152 A 15.174 15.174 0 0 1 16.145 74.5 Q 15.389 72.447 15.03 69.938 A 34.837 34.837 0 0 1 14.702 65.002 A 61.634 61.634 0 0 1 14.712 63.909 A 53.706 53.706 0 0 1 19.102 43.202 Q 23.502 33.102 32.402 26.952 A 33.483 33.483 0 0 1 43.617 21.979 A 43.762 43.762 0 0 1 54.002 20.802 Q 58.102 20.802 61.802 21.352 Q 64.115 21.696 67.013 22.293 A 161.486 161.486 0 0 1 70.702 23.102 A 2.175 2.175 0 0 0 70.848 23.133 Q 71.237 23.202 71.902 23.202 A 5.365 5.365 0 0 0 74.967 22.258 A 7.356 7.356 0 0 0 76.452 20.902 A 9.537 9.537 0 0 0 77.328 19.696 A 7 7 0 0 0 78.402 16.002 A 5.783 5.783 0 0 0 78.273 14.738 Q 77.989 13.469 77.079 12.736 A 4.135 4.135 0 0 0 75.602 12.002 A 47.157 47.157 0 0 0 71.658 10.911 A 59.808 59.808 0 0 0 66.052 9.902 A 85.239 85.239 0 0 0 62.167 9.472 A 68.981 68.981 0 0 0 56.202 9.202 A 69.704 69.704 0 0 0 44.067 10.216 A 51.654 51.654 0 0 0 25.702 17.052 Q 13.002 24.902 6.502 37.852 Q 0.002 50.802 0.002 66.002 Q 0.002 74.802 3.202 81.252 A 28.131 28.131 0 0 0 4.485 83.563 A 22.656 22.656 0 0 0 11.952 91.102 A 22.79 22.79 0 0 0 15.37 92.822 Z M 393.802 37.002 L 387.702 65.602 Q 386.937 69.43 386.757 72.437 A 29.663 29.663 0 0 0 386.702 74.202 A 14.478 14.478 0 0 0 386.874 76.511 Q 387.281 79.025 388.652 80.502 A 6.381 6.381 0 0 0 392.066 82.397 A 9.57 9.57 0 0 0 394.102 82.602 A 10.378 10.378 0 0 0 398.669 81.514 A 13.792 13.792 0 0 0 400.552 80.402 A 23.329 23.329 0 0 0 402.633 78.744 A 40.338 40.338 0 0 0 404.177 77.293 A 27.897 27.897 0 0 1 403.902 73.202 Q 403.902 66.302 406.802 60.352 Q 409.702 54.402 414.852 50.902 Q 420.002 47.402 426.502 47.402 Q 432.302 47.402 435.802 50.852 A 11.46 11.46 0 0 1 438.994 56.915 A 16.681 16.681 0 0 1 439.302 60.202 Q 439.302 67.102 434.352 72.052 A 20.43 20.43 0 0 1 430.154 75.204 Q 425.358 77.996 417.602 79.902 A 8.254 8.254 0 0 0 422.737 83.933 Q 424.255 84.386 426.126 84.478 A 19.888 19.888 0 0 0 427.102 84.502 Q 430.517 84.502 434.651 82.688 A 34.393 34.393 0 0 0 437.352 81.352 Q 443.102 78.202 447.302 73.102 A 4.764 4.764 0 0 1 448.142 72.319 A 3.137 3.137 0 0 1 450.002 71.702 A 2.225 2.225 0 0 1 451.752 72.494 A 3.165 3.165 0 0 1 452.052 72.902 A 4.376 4.376 0 0 1 452.545 74.05 Q 452.802 74.971 452.802 76.202 Q 452.802 79.1 451.805 81.053 A 6.749 6.749 0 0 1 450.902 82.402 Q 447.701 86.295 442.216 89.665 A 53.631 53.631 0 0 1 440.452 90.702 Q 433.702 94.502 426.002 94.502 Q 415.502 94.502 409.702 88.802 A 18.867 18.867 0 0 1 407.788 86.579 A 53.024 53.024 0 0 1 407.716 86.649 Q 404.49 89.789 401.302 91.602 Q 396.202 94.502 390.602 94.502 A 23.026 23.026 0 0 1 385.083 93.878 A 15.644 15.644 0 0 1 377.302 89.452 A 16.98 16.98 0 0 1 373.025 81.137 A 24.864 24.864 0 0 1 372.502 75.902 A 41.494 41.494 0 0 1 372.692 72.164 Q 373.064 68.097 374.162 62.425 A 186.676 186.676 0 0 1 374.902 58.802 L 378.902 40.502 Q 379.067 39.761 379.435 38.071 A 2212.332 2212.332 0 0 0 379.602 37.302 A 69.311 69.311 0 0 0 380.149 34.525 A 57.189 57.189 0 0 0 380.402 32.952 Q 380.702 30.902 380.702 28.902 A 14.478 14.478 0 0 0 380.583 26.978 Q 380.302 24.882 379.352 23.652 A 4.392 4.392 0 0 0 376.256 21.945 A 6.435 6.435 0 0 0 375.502 21.902 A 8.608 8.608 0 0 0 371.628 22.891 Q 368.72 24.348 365.652 27.952 A 31.715 31.715 0 0 0 362.521 32.443 Q 359.629 37.366 356.904 44.955 A 134.051 134.051 0 0 0 355.852 48.002 A 131.241 131.241 0 0 0 352.736 59.149 Q 351.448 64.601 350.34 70.914 A 303.561 303.561 0 0 0 348.302 84.402 Q 347.781 88.874 346.675 91.152 A 6.09 6.09 0 0 1 345.852 92.452 Q 344.43 94.117 341.589 94.43 A 12.707 12.707 0 0 1 340.202 94.502 A 11.468 11.468 0 0 1 338.436 94.375 Q 336.366 94.052 335.252 92.902 Q 333.934 91.541 333.737 88.156 A 21.597 21.597 0 0 1 333.702 86.902 Q 333.702 82.989 334.704 76.754 A 132.113 132.113 0 0 1 334.802 76.152 Q 335.902 69.502 337.602 60.502 A 751.678 751.678 0 0 0 339.166 52.032 Q 342.202 34.989 342.202 29.302 A 15.886 15.886 0 0 0 342.088 27.323 Q 341.795 24.996 340.752 23.702 A 4.645 4.645 0 0 0 338.152 22.096 Q 337.355 21.902 336.402 21.902 A 9.94 9.94 0 0 0 332.057 22.964 Q 330.51 23.711 328.934 24.983 A 26.073 26.073 0 0 0 326.302 27.452 A 27.166 27.166 0 0 0 323.237 31.505 Q 320.478 35.867 317.791 42.722 A 127.614 127.614 0 0 0 316.152 47.152 Q 311.422 60.675 308.198 83.286 A 386.167 386.167 0 0 0 307.902 85.402 Q 307.358 89.364 306.422 91.456 A 6.944 6.944 0 0 1 305.852 92.502 Q 304.525 94.469 300.731 94.501 A 14.959 14.959 0 0 1 300.602 94.502 A 13.105 13.105 0 0 1 298.736 94.378 Q 296.465 94.051 295.302 92.852 A 4.359 4.359 0 0 1 294.429 91.462 Q 293.866 90.099 293.739 87.933 A 22.782 22.782 0 0 1 293.702 86.602 Q 293.702 83.502 294.352 78.652 Q 294.85 74.939 295.846 69.086 A 628.03 628.03 0 0 1 296.502 65.302 A 1084.352 1084.352 0 0 0 298.298 54.117 Q 298.981 49.703 299.557 45.7 A 581.485 581.485 0 0 0 300.602 38.102 A 145.996 145.996 0 0 0 301.133 33.237 Q 301.341 30.953 301.432 28.981 A 62.731 62.731 0 0 0 301.502 26.102 A 9.041 9.041 0 0 0 301.371 24.487 Q 300.864 21.707 298.391 21.606 A 4.635 4.635 0 0 0 298.202 21.602 A 6.556 6.556 0 0 0 296.244 21.929 Q 294.512 22.473 292.421 23.919 A 25.283 25.283 0 0 0 291.952 24.252 A 25.425 25.425 0 0 0 289.354 26.446 Q 286.795 28.891 283.914 32.687 A 79.572 79.572 0 0 0 283.902 32.702 A 6.407 6.407 0 0 1 283.091 33.62 Q 282.574 34.096 282.021 34.341 A 2.978 2.978 0 0 1 280.802 34.602 Q 279.402 34.602 278.352 33.252 Q 277.302 31.902 277.302 30.202 A 8.498 8.498 0 0 1 277.683 27.723 A 10.159 10.159 0 0 1 277.952 26.952 A 12.625 12.625 0 0 1 278.559 25.651 Q 279.165 24.514 280.102 23.202 A 43.374 43.374 0 0 1 285.167 17.274 A 33.296 33.296 0 0 1 290.802 12.852 A 25.981 25.981 0 0 1 296.241 10.263 A 20.002 20.002 0 0 1 302.602 9.202 Q 308.102 9.202 311.052 12.702 A 11.291 11.291 0 0 1 313.117 16.521 Q 313.657 18.173 313.867 20.181 A 26.099 26.099 0 0 1 314.002 22.902 A 35.904 35.904 0 0 1 313.92 25.252 Q 313.837 26.512 313.671 27.93 A 68.571 68.571 0 0 1 313.502 29.252 A 280.088 280.088 0 0 1 313.259 30.992 Q 312.952 33.128 312.688 34.702 A 89.794 89.794 0 0 1 312.602 35.202 A 201.394 201.394 0 0 1 312.418 36.249 Q 312.181 37.568 312.035 38.25 A 18.691 18.691 0 0 1 312.002 38.402 Q 317.056 23.95 323.211 17.241 A 24.73 24.73 0 0 1 324.802 15.652 A 26.426 26.426 0 0 1 331.162 11.3 A 21.179 21.179 0 0 1 340.402 9.202 A 14.746 14.746 0 0 1 345.061 9.904 A 11.948 11.948 0 0 1 350.652 13.802 Q 353.716 17.559 354.277 23.853 A 33.239 33.239 0 0 1 354.402 26.802 Q 354.402 29.177 353.936 32.381 A 71.646 71.646 0 0 1 353.502 35.002 A 81.638 81.638 0 0 1 356.707 27.317 Q 360.415 19.641 364.889 15.487 A 23.658 23.658 0 0 1 365.202 15.202 Q 371.902 9.202 380.602 9.202 A 17.387 17.387 0 0 1 385.031 9.734 A 11.973 11.973 0 0 1 391.352 13.702 Q 395.102 18.202 395.102 26.302 A 37.734 37.734 0 0 1 394.92 29.869 Q 394.615 33.064 393.802 37.002 Z M 103.402 9.902 A 1.864 1.864 0 0 0 102.25 10.373 Q 101.012 11.359 99.653 14.415 A 36.878 36.878 0 0 0 99.052 15.852 A 56.773 56.773 0 0 0 97.618 19.986 Q 96.177 24.667 94.88 31.106 A 181.237 181.237 0 0 0 94.702 32.002 A 183.497 183.497 0 0 0 92.769 44.078 A 231.58 231.58 0 0 0 91.702 54.302 A 337.207 337.207 0 0 0 96.28 45.628 Q 98.47 41.319 100.255 37.444 A 174.023 174.023 0 0 0 102.252 32.952 A 59.056 59.056 0 0 0 104.64 26.369 Q 105.617 23.032 105.983 20.012 A 29.169 29.169 0 0 0 106.202 16.502 Q 106.202 13.539 105.559 11.862 A 5.701 5.701 0 0 0 105.452 11.602 A 4.441 4.441 0 0 0 105.046 10.863 Q 104.786 10.488 104.478 10.259 A 1.759 1.759 0 0 0 103.402 9.902 Z M 100.902 57.302 L 100.602 57.302 A 7.478 7.478 0 0 0 95.116 59.676 A 11.806 11.806 0 0 0 93.752 61.352 A 14.646 14.646 0 0 0 91.781 65.743 Q 91.247 67.692 91.079 70.009 A 30.396 30.396 0 0 0 91.002 72.202 A 24.274 24.274 0 0 0 91.202 75.425 Q 91.415 77.014 91.857 78.317 A 9.822 9.822 0 0 0 93.152 80.902 Q 94.783 83.177 96.844 83.727 A 5.247 5.247 0 0 0 98.202 83.902 A 6.962 6.962 0 0 0 102.758 82.202 A 9.829 9.829 0 0 0 103.702 81.302 A 10.755 10.755 0 0 0 105.549 78.473 Q 106.465 76.482 106.902 73.802 Q 103.802 71.702 102.152 68.302 Q 100.502 64.902 100.502 61.102 A 13.463 13.463 0 0 1 100.541 60.129 Q 100.615 59.117 100.829 57.757 A 48.281 48.281 0 0 1 100.902 57.302 Z M 145.902 57.902 L 145.402 57.902 A 7.373 7.373 0 0 0 139.885 60.347 A 11.395 11.395 0 0 0 138.752 61.752 A 13.286 13.286 0 0 0 137.012 65.48 Q 136.102 68.5 136.102 72.602 A 22.559 22.559 0 0 0 136.307 75.749 Q 136.766 78.997 138.252 81.002 A 8.845 8.845 0 0 0 139.669 82.531 A 5.53 5.53 0 0 0 143.302 83.902 A 7.088 7.088 0 0 0 148.328 81.84 A 9.727 9.727 0 0 0 148.852 81.302 A 10.806 10.806 0 0 0 150.638 78.53 Q 151.213 77.274 151.602 75.741 A 22.846 22.846 0 0 0 152.002 73.802 Q 148.902 71.702 147.252 68.302 Q 145.602 64.902 145.602 61.102 Q 145.602 59.502 145.902 57.902 Z M 243.502 16.302 A 1.619 1.619 0 0 0 242.587 16.628 Q 241.583 17.321 240.442 19.484 A 23.496 23.496 0 0 0 240.152 20.052 Q 238.302 23.802 236.652 30.452 Q 235.002 37.102 233.902 45.202 A 36.677 36.677 0 0 0 239.869 38.705 A 31.376 31.376 0 0 0 242.752 33.752 A 37.252 37.252 0 0 0 244.55 29.151 Q 245.34 26.615 245.588 24.29 A 19.652 19.652 0 0 0 245.702 22.202 Q 245.702 17.648 244.392 16.609 A 1.392 1.392 0 0 0 243.502 16.302 Z M 465.602 94.502 Q 461.202 94.502 458.952 92.102 Q 456.702 89.702 456.702 85.802 A 12.867 12.867 0 0 1 457.057 82.695 A 9.008 9.008 0 0 1 459.252 78.602 A 8.338 8.338 0 0 1 463.543 76.207 A 12.649 12.649 0 0 1 466.402 75.902 A 14.355 14.355 0 0 1 468.935 76.111 Q 471.503 76.572 473.052 78.052 A 6.82 6.82 0 0 1 474.84 81.017 Q 475.302 82.499 475.302 84.402 A 13.181 13.181 0 0 1 474.944 87.561 A 9.175 9.175 0 0 1 472.702 91.752 A 8.591 8.591 0 0 1 467.89 94.302 A 12.513 12.513 0 0 1 465.602 94.502 Z M 469.102 66.002 Q 464.702 66.002 462.452 63.602 Q 460.202 61.202 460.202 57.302 A 12.867 12.867 0 0 1 460.557 54.195 A 9.008 9.008 0 0 1 462.752 50.102 A 8.338 8.338 0 0 1 467.043 47.707 A 12.649 12.649 0 0 1 469.902 47.402 A 14.355 14.355 0 0 1 472.435 47.611 Q 475.003 48.072 476.552 49.552 A 6.82 6.82 0 0 1 478.34 52.517 Q 478.802 53.999 478.802 55.902 A 13.181 13.181 0 0 1 478.444 59.061 A 9.175 9.175 0 0 1 476.202 63.252 A 8.591 8.591 0 0 1 471.39 65.802 A 12.513 12.513 0 0 1 469.102 66.002 Z M 416.002 71.902 L 416.002 72.102 A 31.232 31.232 0 0 0 420.037 70.87 Q 422.083 70.08 423.706 69.053 A 15.789 15.789 0 0 0 425.302 67.902 A 10.841 10.841 0 0 0 427.238 65.871 A 7.5 7.5 0 0 0 428.702 61.402 A 5.579 5.579 0 0 0 428.555 60.085 A 3.877 3.877 0 0 0 427.652 58.352 A 3.462 3.462 0 0 0 425.554 57.257 A 4.943 4.943 0 0 0 424.802 57.202 A 6.081 6.081 0 0 0 420.627 58.882 Q 419.509 59.889 418.552 61.502 Q 416.002 65.802 416.002 71.902 Z" vector-effect="non-scaling-stroke"/></g></svg>