<svg width="425.684" height="64.258" viewBox="0 0 425.684 64.258" xmlns="http://www.w3.org/2000/svg"><g id="svgGroup" stroke-linecap="round" fill-rule="evenodd" font-size="9pt" stroke="#ffffff" stroke-width="0.25mm" fill="#ffffff" style="stroke:#ffffff;stroke-width:0.25mm;fill:#ffffff"><path d="M 299.316 62.793 L 290.723 62.793 L 290.723 0 L 304.492 0 L 322.656 50.684 L 340.918 0 L 354.688 0 L 354.688 62.793 L 346.094 62.793 L 346.094 8.301 L 325.977 62.793 L 319.141 62.793 L 299.316 8.789 L 299.316 62.793 Z M 172.461 48.047 L 172.461 19.336 L 180.371 19.336 L 180.371 48.145 A 10.429 10.429 0 0 0 181.26 52.49 A 10.151 10.151 0 0 0 183.545 55.664 Q 186.719 58.691 190.82 58.691 Q 195.508 58.691 198.926 55.566 A 10.347 10.347 0 0 0 202.268 48.757 A 14.394 14.394 0 0 0 202.344 47.266 L 202.344 19.336 L 210.254 19.336 L 210.254 62.793 L 202.344 62.793 L 202.344 57.227 A 14.727 14.727 0 0 1 198.484 61.347 A 17.581 17.581 0 0 1 197.51 62.012 A 11.263 11.263 0 0 1 194.46 63.33 Q 193.032 63.725 191.326 63.875 A 24.883 24.883 0 0 1 189.16 63.965 A 29.63 29.63 0 0 1 184.555 63.633 Q 182.201 63.261 180.34 62.475 A 11.389 11.389 0 0 1 176.367 59.766 A 13.827 13.827 0 0 1 173.209 53.991 Q 172.461 51.337 172.461 48.047 Z M 8.984 62.793 L 0 62.793 L 26.27 0 L 35.938 0 L 62.598 62.793 L 53.516 62.793 L 46.582 46.094 L 15.82 46.094 L 8.984 62.793 Z M 405.469 42.285 L 374.414 42.285 A 29.669 29.669 0 0 0 374.735 46.747 A 23.013 23.013 0 0 0 375.586 50.391 A 13.88 13.88 0 0 0 377.085 53.615 A 11.255 11.255 0 0 0 379.297 56.152 A 8.73 8.73 0 0 0 382.897 57.946 Q 384.195 58.268 385.718 58.298 A 16.05 16.05 0 0 0 386.035 58.301 Q 390.039 58.301 392.383 56.738 A 10.887 10.887 0 0 0 394.382 55.046 A 8.716 8.716 0 0 0 395.801 52.979 Q 396.739 51.059 397.081 49.401 A 10.296 10.296 0 0 0 397.168 48.926 L 405.469 48.926 A 17.481 17.481 0 0 1 404.006 53.519 A 22.003 22.003 0 0 1 402.686 55.908 A 16.176 16.176 0 0 1 398.599 60.245 A 20.562 20.562 0 0 1 396.387 61.67 Q 392.986 63.573 387.974 63.898 A 32.982 32.982 0 0 1 385.84 63.965 A 22.442 22.442 0 0 1 381.513 63.568 A 16.131 16.131 0 0 1 376.66 61.816 A 18.006 18.006 0 0 1 371.633 57.685 A 17.051 17.051 0 0 1 370.557 56.25 Q 368.262 52.832 367.188 48.828 A 31.526 31.526 0 0 1 366.24 43.699 A 26.808 26.808 0 0 1 366.113 41.113 Q 366.113 37.012 367.139 33.008 Q 368.164 29.004 370.508 25.635 A 16.608 16.608 0 0 1 376.157 20.585 A 19.576 19.576 0 0 1 376.758 20.264 Q 380.664 18.262 386.426 18.262 Q 390.951 18.262 394.211 19.329 A 14.463 14.463 0 0 1 396.631 20.361 A 17.509 17.509 0 0 1 399.829 22.566 A 13.481 13.481 0 0 1 402.441 25.635 A 20.373 20.373 0 0 1 404.777 30.953 A 18.851 18.851 0 0 1 405.078 32.227 A 41.396 41.396 0 0 1 405.495 34.666 Q 405.67 35.933 405.73 37.052 A 21.066 21.066 0 0 1 405.762 38.184 A 28.416 28.416 0 0 1 405.583 41.421 A 25.104 25.104 0 0 1 405.469 42.285 Z M 77.734 57.715 L 77.734 62.793 L 69.824 62.793 L 69.824 0 L 77.441 0 L 77.441 25.293 Q 78.732 23.395 81.114 21.586 A 27.517 27.517 0 0 1 82.568 20.557 A 12.153 12.153 0 0 1 85.844 19.071 Q 87.38 18.616 89.226 18.417 A 28.576 28.576 0 0 1 92.285 18.262 A 22.787 22.787 0 0 1 96.213 18.582 Q 99.068 19.082 101.27 20.361 A 16.706 16.706 0 0 1 105.838 24.197 A 15.746 15.746 0 0 1 106.982 25.781 A 23.243 23.243 0 0 1 109.876 32.377 A 22.034 22.034 0 0 1 109.961 32.715 Q 110.763 36.011 110.833 38.738 A 20.144 20.144 0 0 1 110.84 39.258 A 38.303 38.303 0 0 1 110.389 45.298 Q 109.866 48.57 108.737 51.298 A 21.891 21.891 0 0 1 108.057 52.783 Q 105.273 58.301 101.025 61.133 Q 96.777 63.965 92.383 63.965 A 22.711 22.711 0 0 1 88.21 63.6 A 16.35 16.35 0 0 1 83.643 62.061 A 25.6 25.6 0 0 1 80.615 60.224 Q 79.066 59.123 77.89 57.881 A 15.797 15.797 0 0 1 77.734 57.715 Z M 226.66 51.367 L 226.66 24.902 L 218.75 24.902 L 218.75 19.336 L 226.66 19.336 L 226.66 10.645 L 234.57 7.422 L 234.57 19.336 L 244.141 19.336 L 244.141 24.902 L 234.57 24.902 L 234.57 51.367 Q 234.57 55.469 235.84 56.738 A 4.238 4.238 0 0 0 238.089 57.902 A 6.141 6.141 0 0 0 239.258 58.008 A 15.338 15.338 0 0 0 244.141 57.227 L 244.141 62.793 A 20.844 20.844 0 0 1 240.267 63.771 A 17.479 17.479 0 0 1 237.695 63.965 A 20.551 20.551 0 0 1 234.678 63.759 Q 231.113 63.228 229.248 61.328 A 6.975 6.975 0 0 1 227.828 59.093 Q 226.66 56.288 226.66 51.367 Z M 133.951 63.004 A 24.579 24.579 0 0 0 140.918 63.965 Q 146.777 63.965 151.66 61.475 Q 156.543 58.984 159.424 53.906 Q 161.224 50.732 161.9 46.529 A 34.18 34.18 0 0 0 162.305 41.113 Q 162.305 36.963 161.492 33.584 A 20.549 20.549 0 0 0 159.424 28.223 A 21.945 21.945 0 0 0 159.05 27.589 A 18.015 18.015 0 0 0 151.66 20.703 A 22.545 22.545 0 0 0 148.756 19.496 A 24.446 24.446 0 0 0 140.918 18.262 A 27.628 27.628 0 0 0 138.724 18.348 A 22.909 22.909 0 0 0 130.127 20.703 A 17.489 17.489 0 0 0 126.518 23.125 A 19.298 19.298 0 0 0 122.412 28.223 A 18.676 18.676 0 0 0 121.397 30.311 Q 120.401 32.722 119.936 35.638 A 34.869 34.869 0 0 0 119.531 41.113 Q 119.531 48.828 122.412 53.906 Q 125.293 58.984 130.127 61.475 A 21.699 21.699 0 0 0 133.951 63.004 Z M 140.918 58.301 A 13.296 13.296 0 0 0 144.243 57.906 A 9.737 9.737 0 0 0 148.389 55.713 A 15.471 15.471 0 0 0 152.307 50.141 A 18.533 18.533 0 0 0 152.686 49.17 A 23.738 23.738 0 0 0 154.102 41.113 A 24.154 24.154 0 0 0 152.686 33.008 Q 151.27 29.004 148.389 26.367 A 9.88 9.88 0 0 0 143.3 23.928 A 13.82 13.82 0 0 0 140.918 23.73 Q 136.23 23.73 133.301 26.367 A 15.655 15.655 0 0 0 129.258 32.209 A 18.64 18.64 0 0 0 128.955 33.008 A 24.154 24.154 0 0 0 127.539 41.113 A 23.738 23.738 0 0 0 128.955 49.17 A 16.148 16.148 0 0 0 131.541 53.867 A 14.837 14.837 0 0 0 133.301 55.713 A 10.116 10.116 0 0 0 138.16 58.048 A 14.37 14.37 0 0 0 140.918 58.301 Z M 90.039 58.105 A 10.038 10.038 0 0 0 97.386 54.947 A 15.051 15.051 0 0 0 98.779 53.32 Q 101.69 49.412 102.224 43.094 A 35.165 35.165 0 0 0 102.344 40.137 A 30.539 30.539 0 0 0 101.764 34.097 A 26.925 26.925 0 0 0 101.221 31.885 Q 100.098 28.027 97.461 25.635 A 8.798 8.798 0 0 0 93.759 23.668 Q 92.171 23.242 90.234 23.242 A 12.212 12.212 0 0 0 86.87 23.685 A 9.632 9.632 0 0 0 83.105 25.732 A 14.293 14.293 0 0 0 79.262 31.253 A 17.182 17.182 0 0 0 78.955 32.08 Q 77.637 35.938 77.637 40.137 A 39.825 39.825 0 0 0 77.912 44.985 Q 78.215 47.45 78.852 49.467 A 15.383 15.383 0 0 0 80.762 53.516 A 10.1 10.1 0 0 0 88.146 57.988 A 14.715 14.715 0 0 0 90.039 58.105 Z M 30.957 9.766 L 19.238 38.672 L 42.969 38.672 L 30.957 9.766 Z M 374.414 36.621 L 397.168 36.621 Q 397.266 36.133 397.266 35.645 L 397.266 34.668 A 13.292 13.292 0 0 0 396.191 29.346 A 8.896 8.896 0 0 0 392.976 25.492 A 10.84 10.84 0 0 0 392.676 25.293 A 8.897 8.897 0 0 0 390.253 24.239 Q 389.121 23.923 387.768 23.803 A 19.696 19.696 0 0 0 386.035 23.73 Q 382.611 23.73 380.388 25.191 A 7.417 7.417 0 0 0 379.443 25.928 A 13.33 13.33 0 0 0 375.928 31.104 Q 374.805 34.082 374.414 36.621 Z M 416.27 27.98 A 5.722 5.722 0 0 0 419.922 29.297 A 5.48 5.48 0 0 0 422.171 28.828 A 6.256 6.256 0 0 0 423.926 27.637 A 6.911 6.911 0 0 0 424.151 27.414 A 5.14 5.14 0 0 0 425.684 23.73 A 5.42 5.42 0 0 0 425.216 21.482 A 5.879 5.879 0 0 0 423.926 19.678 A 7.269 7.269 0 0 0 423.535 19.324 A 5.474 5.474 0 0 0 419.922 17.969 A 5.44 5.44 0 0 0 417.534 18.509 A 6.578 6.578 0 0 0 415.869 19.678 A 7.118 7.118 0 0 0 415.731 19.812 A 5.359 5.359 0 0 0 414.063 23.73 Q 414.063 25.977 415.869 27.637 A 7.521 7.521 0 0 0 416.27 27.98 Z M 416.386 62.996 A 5.592 5.592 0 0 0 419.922 64.258 A 5.342 5.342 0 0 0 422.263 63.732 A 6.302 6.302 0 0 0 423.926 62.549 A 7.075 7.075 0 0 0 424.265 62.196 A 5.251 5.251 0 0 0 425.684 58.594 A 5.286 5.286 0 0 0 425.284 56.526 A 5.382 5.382 0 0 0 423.926 54.639 Q 422.168 53.027 419.922 53.027 A 5.724 5.724 0 0 0 417.722 53.456 A 6.502 6.502 0 0 0 415.869 54.639 Q 414.063 56.25 414.063 58.594 Q 414.063 60.84 415.869 62.549 A 7.472 7.472 0 0 0 416.386 62.996 Z" vector-effect="non-scaling-stroke"/></g></svg>